HIERARCHY
ROOT Hips
{
	OFFSET 0.327225 85.456291 8.060652
	CHANNELS 6 Xposition Yposition Zposition Zrotation Yrotation Xrotation 
	JOINT Spine
	{
		OFFSET 0.000000 8.814246 -2.080107
		CHANNELS 3 Zrotation Yrotation Xrotation
		JOINT Spine1
		{
			OFFSET -0.000000 8.844141 0.000000
			CHANNELS 3 Zrotation Yrotation Xrotation
			JOINT Spine2
			{
				OFFSET 0.000000 11.682268 0.000000
				CHANNELS 3 Zrotation Yrotation Xrotation
				JOINT Spine3
				{
					OFFSET 0.000000 11.746700 0.000000
					CHANNELS 3 Zrotation Yrotation Xrotation
					JOINT Neck
					{
						OFFSET 0.000000 17.658264 0.000000
						CHANNELS 3 Zrotation Yrotation Xrotation
						JOINT Neck1
						{
							OFFSET 0.000000 5.101515 0.000000
							CHANNELS 3 Zrotation Yrotation Xrotation
							JOINT Head
							{
								OFFSET -0.000000 5.101515 -0.000000
								CHANNELS 3 Zrotation Yrotation Xrotation
								JOINT HeadEnd
								{
									OFFSET 0.000000 11.655085 0.000000
									CHANNELS 3 Zrotation Yrotation Xrotation
									End Site
									{
										OFFSET 0.000000 0.000000 0.000000
									}
								}
							}
						}
					}
					JOINT RightShoulder
					{
						OFFSET -2.625389 11.175210 -0.000000
						CHANNELS 3 Zrotation Yrotation Xrotation
						JOINT RightArm
						{
							OFFSET 0.000000 10.434715 0.000000
							CHANNELS 3 Zrotation Yrotation Xrotation
							JOINT RightForeArm
							{
								OFFSET -0.000000 29.628420 -0.000000
								CHANNELS 3 Zrotation Yrotation Xrotation
								JOINT RightHand
								{
									OFFSET 0.000000 22.857611 -0.000000
									CHANNELS 3 Zrotation Yrotation Xrotation
									JOINT RightHandThumb1
									{
										OFFSET -2.867323 3.959563 2.944291
										CHANNELS 3 Zrotation Yrotation Xrotation
										JOINT RightHandThumb2
										{
											OFFSET -0.000000 3.350399 0.000000
											CHANNELS 3 Zrotation Yrotation Xrotation
											JOINT RightHandThumb3
											{
												OFFSET -0.000000 3.756509 0.000000
												CHANNELS 3 Zrotation Yrotation Xrotation
												JOINT RightHandThumb4
												{
													OFFSET -0.000000 3.147345 0.000000
													CHANNELS 3 Zrotation Yrotation Xrotation
													End Site
													{
														OFFSET 0.000000 0.000000 0.000000
													}
												}
											}
										}
									}
									JOINT RightHandIndex1
									{
										OFFSET -0.086752 10.030893 2.345280
										CHANNELS 3 Zrotation Yrotation Xrotation
										JOINT RightHandIndex2
										{
											OFFSET -0.000000 4.061090 -0.000000
											CHANNELS 3 Zrotation Yrotation Xrotation
											JOINT RightHandIndex3
											{
												OFFSET 0.000000 3.248873 -0.000000
												CHANNELS 3 Zrotation Yrotation Xrotation
												JOINT RightHandIndex4
												{
													OFFSET 0.000000 2.639709 -0.000000
													CHANNELS 3 Zrotation Yrotation Xrotation
													End Site
													{
														OFFSET 0.000000 0.000000 0.000000
													}
												}
											}
										}
									}
									JOINT RightHandMiddle1
									{
										OFFSET 0.104102 9.502952 0.006768
										CHANNELS 3 Zrotation Yrotation Xrotation
										JOINT RightHandMiddle2
										{
											OFFSET -0.000000 4.568727 -0.000000
											CHANNELS 3 Zrotation Yrotation Xrotation
											JOINT RightHandMiddle3
											{
												OFFSET -0.000000 3.654981 -0.000000
												CHANNELS 3 Zrotation Yrotation Xrotation
												JOINT RightHandMiddle4
												{
													OFFSET -0.000000 2.741236 -0.000000
													CHANNELS 3 Zrotation Yrotation Xrotation
													End Site
													{
														OFFSET 0.000000 0.000000 0.000000
													}
												}
											}
										}
									}
									JOINT RightHandRing1
									{
										OFFSET 0.086752 8.921708 -2.267442
										CHANNELS 3 Zrotation Yrotation Xrotation
										JOINT RightHandRing2
										{
											OFFSET -0.000000 4.061090 0.000000
											CHANNELS 3 Zrotation Yrotation Xrotation
											JOINT RightHandRing3
											{
												OFFSET 0.000000 3.654981 -0.000000
												CHANNELS 3 Zrotation Yrotation Xrotation
												JOINT RightHandRing4
												{
													OFFSET 0.000000 2.741236 -0.000000
													CHANNELS 3 Zrotation Yrotation Xrotation
													End Site
													{
														OFFSET 0.000000 0.000000 0.000000
													}
												}
											}
										}
									}
									JOINT RightHandPinky1
									{
										OFFSET -0.173504 7.976997 -4.467199
										CHANNELS 3 Zrotation Yrotation Xrotation
										JOINT RightHandPinky2
										{
											OFFSET -0.000000 3.350399 0.000000
											CHANNELS 3 Zrotation Yrotation Xrotation
											JOINT RightHandPinky3
											{
												OFFSET 0.000000 2.842763 -0.000000
												CHANNELS 3 Zrotation Yrotation Xrotation
												JOINT RightHandPinky4
												{
													OFFSET -0.000000 2.639709 0.000000
													CHANNELS 3 Zrotation Yrotation Xrotation
													End Site
													{
														OFFSET 0.000000 0.000000 0.000000
													}
												}
											}
										}
									}
									JOINT RightForeArmEnd
									{
										OFFSET 0.000000 0.000000 0.000000
										CHANNELS 3 Zrotation Yrotation Xrotation
										End Site
										{
											OFFSET 0.000000 0.000000 0.000000
										}
									}
								}
								JOINT RightArmEnd
								{
									OFFSET 0.000000 0.000000 0.000000
									CHANNELS 3 Zrotation Yrotation Xrotation
									End Site
									{
										OFFSET 0.000000 0.000000 0.000000
									}
								}
							}
						}
					}
					JOINT LeftShoulder
					{
						OFFSET 2.625389 11.175210 0.000000
						CHANNELS 3 Zrotation Yrotation Xrotation
						JOINT LeftArm
						{
							OFFSET -0.000000 10.813635 0.000000
							CHANNELS 3 Zrotation Yrotation Xrotation
							JOINT LeftForeArm
							{
								OFFSET 0.000000 28.724781 -0.000000
								CHANNELS 3 Zrotation Yrotation Xrotation
								JOINT LeftHand
								{
									OFFSET 0.644384 25.716167 -0.328871
									CHANNELS 3 Zrotation Yrotation Xrotation
									JOINT LeftHandThumb1
									{
										OFFSET 2.867323 3.959563 2.944291
										CHANNELS 3 Zrotation Yrotation Xrotation
										JOINT LeftHandThumb2
										{
											OFFSET 0.000000 3.350399 -0.000000
											CHANNELS 3 Zrotation Yrotation Xrotation
											JOINT LeftHandThumb3
											{
												OFFSET 0.000000 3.756509 0.000000
												CHANNELS 3 Zrotation Yrotation Xrotation
												JOINT LeftHandThumb4
												{
													OFFSET 0.000000 3.100000 0.000000
													CHANNELS 3 Zrotation Yrotation Xrotation
													End Site
													{
														OFFSET 0.000000 0.000000 0.000000
													}
												}
											}
										}
									}
									JOINT LeftHandIndex1
									{
										OFFSET 0.086752 10.030893 2.345280
										CHANNELS 3 Zrotation Yrotation Xrotation
										JOINT LeftHandIndex2
										{
											OFFSET 0.000000 4.061090 0.000000
											CHANNELS 3 Zrotation Yrotation Xrotation
											JOINT LeftHandIndex3
											{
												OFFSET -0.000000 3.248873 -0.000000
												CHANNELS 3 Zrotation Yrotation Xrotation
												JOINT LeftHandIndex4
												{
													OFFSET -0.000000 2.639709 -0.000000
													CHANNELS 3 Zrotation Yrotation Xrotation
													End Site
													{
														OFFSET 0.000000 0.000000 0.000000
													}
												}
											}
										}
									}
									JOINT LeftHandMiddle1
									{
										OFFSET -0.104102 9.502952 0.006768
										CHANNELS 3 Zrotation Yrotation Xrotation
										JOINT LeftHandMiddle2
										{
											OFFSET 0.000000 4.568727 0.000000
											CHANNELS 3 Zrotation Yrotation Xrotation
											JOINT LeftHandMiddle3
											{
												OFFSET -0.000000 3.654981 -0.000000
												CHANNELS 3 Zrotation Yrotation Xrotation
												JOINT LeftHandMiddle4
												{
													OFFSET -0.000000 2.741236 -0.000000
													CHANNELS 3 Zrotation Yrotation Xrotation
													End Site
													{
														OFFSET 0.000000 0.000000 0.000000
													}
												}
											}
										}
									}
									JOINT LeftHandRing1
									{
										OFFSET -0.086752 8.921708 -2.267442
										CHANNELS 3 Zrotation Yrotation Xrotation
										JOINT LeftHandRing2
										{
											OFFSET 0.000000 4.061090 0.000000
											CHANNELS 3 Zrotation Yrotation Xrotation
											JOINT LeftHandRing3
											{
												OFFSET -0.000000 3.654981 -0.000000
												CHANNELS 3 Zrotation Yrotation Xrotation
												JOINT LeftHandRing4
												{
													OFFSET -0.000000 2.741236 -0.000000
													CHANNELS 3 Zrotation Yrotation Xrotation
													End Site
													{
														OFFSET 0.000000 0.000000 0.000000
													}
												}
											}
										}
									}
									JOINT LeftHandPinky1
									{
										OFFSET 0.173504 7.976997 -4.467199
										CHANNELS 3 Zrotation Yrotation Xrotation
										JOINT LeftHandPinky2
										{
											OFFSET 0.000000 3.350399 0.000000
											CHANNELS 3 Zrotation Yrotation Xrotation
											JOINT LeftHandPinky3
											{
												OFFSET 0.000000 2.842763 0.000000
												CHANNELS 3 Zrotation Yrotation Xrotation
												JOINT LeftHandPinky4
												{
													OFFSET 0.000000 2.639709 -0.000000
													CHANNELS 3 Zrotation Yrotation Xrotation
													End Site
													{
														OFFSET 0.000000 0.000000 0.000000
													}
												}
											}
										}
									}
									JOINT LeftForeArmEnd
									{
										OFFSET 0.000000 0.000000 0.000000
										CHANNELS 3 Zrotation Yrotation Xrotation
										End Site
										{
											OFFSET 0.000000 0.000000 0.000000
										}
									}
								}
								JOINT LeftArmEnd
								{
									OFFSET 0.000000 0.000000 0.000000
									CHANNELS 3 Zrotation Yrotation Xrotation
									End Site
									{
										OFFSET 0.000000 0.000000 0.000000
									}
								}
							}
						}
					}
				}
			}
		}
	}
	JOINT RightUpLeg
	{
		OFFSET -11.289943 0.000000 -0.000000
		CHANNELS 3 Zrotation Yrotation Xrotation
		JOINT RightLeg
		{
			OFFSET -0.000000 -38.200325 -0.000000
			CHANNELS 3 Zrotation Yrotation Xrotation
			JOINT RightFoot
			{
				OFFSET -0.000000 -39.900856 0.000000
				CHANNELS 3 Zrotation Yrotation Xrotation
				JOINT RightToeBase
				{
					OFFSET 0.000000 -0.000000 15.261641
					CHANNELS 3 Zrotation Yrotation Xrotation
					JOINT RightToeBaseEnd
					{
						OFFSET -0.000000 -0.000000 7.370709
						CHANNELS 3 Zrotation Yrotation Xrotation
						End Site
						{
							OFFSET 0.000000 0.000000 0.000000
						}
					}
				}
				JOINT RightLegEnd
				{
					OFFSET 0.000000 0.000000 0.000000
					CHANNELS 3 Zrotation Yrotation Xrotation
					End Site
					{
						OFFSET 0.000000 0.000000 0.000000
					}
				}
			}
			JOINT RightUpLegEnd
			{
				OFFSET 0.000000 0.000000 0.000000
				CHANNELS 3 Zrotation Yrotation Xrotation
				End Site
				{
					OFFSET 0.000000 0.000000 0.000000
				}
			}
		}
	}
	JOINT LeftUpLeg
	{
		OFFSET 11.315661 -0.000000 0.000000
		CHANNELS 3 Zrotation Yrotation Xrotation
		JOINT LeftLeg
		{
			OFFSET -0.000000 -38.200325 -0.000000
			CHANNELS 3 Zrotation Yrotation Xrotation
			JOINT LeftFoot
			{
				OFFSET -0.000000 -39.900856 0.000000
				CHANNELS 3 Zrotation Yrotation Xrotation
				JOINT LeftToeBase
				{
					OFFSET 0.000000 -0.000000 15.261641
					CHANNELS 3 Zrotation Yrotation Xrotation
					JOINT LeftToeBaseEnd
					{
						OFFSET -0.000000 0.000000 7.539996
						CHANNELS 3 Zrotation Yrotation Xrotation
						End Site
						{
							OFFSET 0.000000 0.000000 0.000000
						}
					}
				}
				JOINT LeftLegEnd
				{
					OFFSET 0.000000 0.000000 0.000000
					CHANNELS 3 Zrotation Yrotation Xrotation
					End Site
					{
						OFFSET 0.000000 0.000000 0.000000
					}
				}
			}
			JOINT LeftUpLegEnd
			{
				OFFSET 0.000000 0.000000 0.000000
				CHANNELS 3 Zrotation Yrotation Xrotation
				End Site
				{
					OFFSET 0.000000 0.000000 0.000000
				}
			}
		}
	}
}
MOTION
Frames: 4
Frame Time: 0.016667
-7.240489 86.719719 9.471857 -1.870257 7.974272 -22.208719 3.404263 -0.709791 10.105307 0.405628 -0.164199 1.152097 0.795747 -2.005399 14.488738 -0.918164 -0.222066 9.496161 3.515686 -0.496143 13.206594 -0.962129 0.113283 -0.005047 0.087954 0.241558 -20.960157 0.000000 0.000000 0.000000 90.524002 -0.037982 11.206032 60.465557 -12.963955 8.225730 -0.683303 19.331676 68.362106 31.108870 52.819389 23.185188 -4.364169 0.630056 46.688175 0.000009 0.000004 9.937287 0.000003 0.000041 7.257754 0.000018 0.000011 -0.000033 14.605092 1.281095 -2.988077 10.154444 -0.053893 -0.283130 9.899804 0.046917 -0.288172 -0.000026 0.000006 -0.000014 13.687624 0.510968 -5.452193 9.743457 -0.071565 -0.123734 9.851306 0.009178 -0.109121 -0.000021 -0.000137 0.000001 15.912325 -0.681074 -8.794127 10.967313 0.123152 0.192799 11.052343 -0.024943 0.145019 0.000012 -0.000226 -0.000019 17.645716 -1.821968 -13.022286 11.546409 0.174912 0.647471 11.534542 -0.151201 0.516358 -0.000499 0.000008 -0.000022 0.000000 0.000000 0.000000 0.000000 0.000000 0.000000 -87.537987 -0.378379 8.068659 -70.529396 4.575660 -1.773828 -0.193453 -16.206364 80.164810 -67.221222 -60.382339 47.332863 4.772201 -0.722036 46.802265 -0.000007 0.000031 10.944241 0.000157 0.000004 7.861865 -0.000238 0.000006 0.000873 -11.995364 1.274499 -2.179041 -8.691664 -0.009266 0.456968 -8.736253 0.079658 0.425603 0.000038 -0.000114 0.000005 -12.339296 0.523974 -5.058455 -8.712705 -0.059738 0.177111 -8.807385 0.026691 0.155792 -0.000377 -0.000003 -0.000103 -16.201229 -0.630448 -9.191078 -10.451653 0.124185 -0.248412 -10.268242 -0.033924 -0.174906 -0.000610 0.000009 -0.000001 -18.268589 -1.799942 -13.412176 -11.595772 0.235159 -0.740176 -11.542706 -0.114604 -0.598472 -0.000345 0.000012 -0.000053 0.000000 0.000000 0.000000 0.000000 0.000000 0.000000 0.068035 -5.939364 22.256355 -0.122787 -0.543337 14.294623 -3.213279 -11.512425 11.380733 -1.104489 0.990953 -15.801739 0.000000 0.000000 0.000000 0.000000 0.000000 0.000000 0.000000 0.000000 0.000000 8.039200 -5.888586 17.256361 0.396451 1.019013 22.570145 -2.586561 2.861026 8.604740 0.764468 -1.051958 -18.919603 0.000000 0.000000 0.000000 0.000000 0.000000 0.000000 0.000000 0.000000 0.000000 
-7.254833 86.718872 9.487257 -1.900264 7.961675 -22.215118 3.422538 -0.711649 10.109961 0.403949 -0.170085 1.149927 0.834197 -2.004933 14.478830 -0.916793 -0.210416 9.485391 3.431624 -0.479057 13.144702 -0.974895 0.113021 -0.036539 0.074663 0.226405 -21.020597 0.000000 0.000000 0.000000 90.485161 -0.021725 11.161716 60.251049 -12.920932 8.279664 -0.707173 19.189297 69.136864 31.336340 52.265072 23.212111 -4.359468 0.629302 46.687054 0.000008 0.000004 9.930103 0.000003 0.000040 7.257937 0.000018 0.000011 -0.000032 14.651247 1.283898 -3.123404 10.192653 -0.058657 -0.271535 9.942471 0.042206 -0.277537 -0.000027 0.000006 -0.000013 13.746539 0.510798 -5.578549 9.777872 -0.073760 -0.119642 9.885511 0.007625 -0.104766 -0.000021 -0.000135 0.000001 16.019131 -0.680351 -8.927263 11.012575 0.126039 0.184970 11.102708 -0.022677 0.138729 0.000012 -0.000186 -0.000019 17.758871 -1.820001 -13.173608 11.580822 0.183548 0.622652 11.569093 -0.143655 0.493534 -0.000496 0.000008 -0.000022 0.000000 0.000000 0.000000 0.000000 0.000000 0.000000 -87.522888 -0.366650 7.984985 -70.506615 4.455684 -1.885779 -0.170995 -16.140633 80.304955 -66.582191 -60.051907 46.543266 4.779829 -0.723813 46.805134 -0.000007 0.000031 10.959834 0.000155 0.000004 7.872980 -0.000243 0.000006 0.000825 -11.965353 1.277002 -2.332752 -8.714607 -0.011957 0.451016 -8.757339 0.077604 0.417710 0.000038 -0.000116 0.000006 -12.312459 0.524342 -5.203071 -8.732061 -0.060924 0.174333 -8.828452 0.025818 0.152570 -0.000354 -0.000003 -0.000106 -16.226692 -0.631071 -9.337312 -10.494272 0.126560 -0.243016 -10.307182 -0.032698 -0.171149 -0.000711 0.000010 -0.000001 -18.315645 -1.800887 -13.578923 -11.656327 0.238905 -0.726381 -11.598947 -0.111714 -0.587472 -0.000369 0.000013 -0.000053 0.000000 0.000000 0.000000 0.000000 0.000000 0.000000 0.095972 -5.962388 22.291359 -0.123031 -0.547179 14.266877 -3.199033 -11.477396 11.355867 -1.108106 0.996077 -15.788028 0.000000 0.000000 0.000000 0.000000 0.000000 0.000000 0.000000 0.000000 0.000000 8.085413 -5.883015 17.242495 0.397121 1.021025 22.620417 -2.600221 2.865224 8.573465 0.765995 -1.050184 -18.904606 0.000000 0.000000 0.000000 0.000000 0.000000 0.000000 0.000000 0.000000 0.000000 
-7.270782 86.718246 9.502318 -1.936398 7.949235 -22.225241 3.449054 -0.712984 10.116102 0.407648 -0.175503 1.148281 0.865555 -2.001837 14.480869 -0.917296 -0.195061 9.476340 3.337645 -0.455904 13.099532 -0.987014 0.118861 -0.064538 0.060293 0.210138 -21.101816 0.000000 0.000000 0.000000 90.435188 -0.001834 11.107354 60.050747 -12.787625 8.321733 -0.733339 19.016733 70.107788 31.668806 51.632385 23.341362 -4.361250 0.629140 46.687809 0.000007 0.000003 9.936310 0.000004 0.000040 7.270423 0.000018 0.000011 -0.000032 14.649742 1.286714 -3.240752 10.205641 -0.063461 -0.259072 9.958652 0.037360 -0.265748 -0.000028 0.000005 -0.000011 13.751778 0.510564 -5.700265 9.786510 -0.076109 -0.114916 9.894547 0.005974 -0.099758 -0.000020 -0.000134 0.000001 16.065140 -0.679403 -9.071802 11.023618 0.129254 0.175404 11.120730 -0.020093 0.131183 0.000013 -0.000152 -0.000018 17.815447 -1.817366 -13.354458 11.580646 0.193277 0.592581 11.569756 -0.134993 0.465993 -0.000484 0.000008 -0.000021 0.000000 0.000000 0.000000 0.000000 0.000000 0.000000 -87.516624 -0.354174 7.890450 -70.492661 4.233148 -1.987154 -0.139552 -16.058973 80.676277 -66.237396 -59.567608 46.010517 4.823445 -0.729343 46.818211 -0.000007 0.000031 11.048065 0.000151 0.000004 7.940573 -0.000253 0.000005 0.000762 -11.730715 1.279650 -2.457810 -8.619603 -0.015049 0.440536 -8.659077 0.075190 0.405430 0.000039 -0.000114 0.000005 -12.101088 0.524629 -5.348893 -8.638162 -0.062296 0.169694 -8.735615 0.024768 0.147690 -0.000330 -0.000002 -0.000110 -16.101810 -0.631684 -9.534157 -10.436772 0.129099 -0.235394 -10.244062 -0.031301 -0.165426 -0.000807 0.000010 -0.000001 -18.242958 -1.801450 -13.843048 -11.643373 0.242667 -0.706240 -11.580863 -0.108647 -0.571115 -0.000393 0.000013 -0.000053 0.000000 0.000000 0.000000 0.000000 0.000000 0.000000 0.129093 -5.991027 22.336479 -0.123058 -0.551050 14.232439 -3.184184 -11.447667 11.335547 -1.111363 1.001212 -15.780318 0.000000 0.000000 0.000000 0.000000 0.000000 0.000000 0.000000 0.000000 0.000000 8.137262 -5.882690 17.225040 0.397767 1.023312 22.680145 -2.616484 2.865914 8.539114 0.766820 -1.048462 -18.895664 0.000000 0.000000 0.000000 0.000000 0.000000 0.000000 0.000000 0.000000 0.000000 
-7.287935 86.717499 9.515900 -1.975680 7.940911 -22.236393 3.481273 -0.713156 10.122591 0.414758 -0.179357 1.149184 0.887316 -1.997692 14.493888 -0.920923 -0.177204 9.467726 3.235543 -0.429694 13.077285 -0.997521 0.127762 -0.088475 0.046278 0.193108 -21.200481 0.000000 0.000000 0.000000 90.381676 0.021927 11.044254 59.863785 -12.579041 8.337842 -0.761926 18.828842 71.279999 32.103344 50.915714 23.573105 -4.374970 0.630195 46.692104 0.000004 0.000003 9.966875 0.000004 0.000040 7.303404 0.000018 0.000011 -0.000031 14.575365 1.289853 -3.324850 10.168190 -0.067791 -0.245031 9.921704 0.032908 -0.252060 -0.000029 0.000005 -0.000010 13.676572 0.510398 -5.808533 9.744822 -0.078400 -0.109294 9.854235 0.004379 -0.093908 -0.000019 -0.000131 0.000001 16.025078 -0.678293 -9.227180 10.974853 0.132517 0.163967 11.079939 -0.017407 0.122220 0.000013 -0.000124 -0.000018 17.801926 -1.813877 -13.573696 11.524012 0.203238 0.557574 11.513598 -0.126042 0.434120 -0.000463 0.000009 -0.000021 0.000000 0.000000 0.000000 0.000000 0.000000 0.000000 -87.521210 -0.341254 7.791265 -70.472610 3.917919 -2.065686 -0.098248 -15.968244 81.328209 -66.172997 -58.923191 45.733143 4.908113 -0.738936 46.842590 -0.000006 0.000030 11.217580 0.000147 0.000004 8.071072 -0.000263 0.000005 0.000676 -11.261023 1.282423 -2.519508 -8.376950 -0.018256 0.424747 -8.411338 0.072689 0.388196 0.000039 -0.000111 0.000005 -11.680975 0.524880 -5.473762 -8.402306 -0.063756 0.162954 -8.500339 0.023640 0.140992 -0.000315 -0.000001 -0.000112 -15.799147 -0.632239 -9.771641 -10.248955 0.131591 -0.225420 -10.049382 -0.029873 -0.157517 -0.000894 0.000010 -0.000001 -18.022116 -1.801172 -14.204502 -11.529833 0.246115 -0.679144 -11.462235 -0.105776 -0.548902 -0.000414 0.000013 -0.000053 0.000000 0.000000 0.000000 0.000000 0.000000 0.000000 0.162731 -6.027858 22.391636 -0.122929 -0.554909 14.188657 -3.167396 -11.425026 11.322265 -1.114371 1.005871 -15.780953 0.000000 0.000000 0.000000 0.000000 0.000000 0.000000 0.000000 0.000000 0.000000 8.189142 -5.887667 17.197966 0.398356 1.025921 22.752472 -2.635121 2.861665 8.502002 0.766884 -1.046673 -18.894501 0.000000 0.000000 0.000000 0.000000 0.000000 0.000000 0.000000 0.000000 0.000000 
